# xmcd CD database file
#
# Track frame offsets:
#	150
#	22900
#	41853
#
# Disc length: 850 seconds
#
# Revision: 0
# Processed by: cddbd v1.5PL3 Copyright (c) Steve Scherf et al.
# Submitted via: CDex 1.51
#
DISCID=1c035003
DTITLE=くるり - ばらの花
DYEAR=2001
DGENRE=Rock
TTITLE0=ばらの花
TTITLE1=青写真
TTITLE2=イメージファイト
EXTD=YEAR: 2001
EXTT0=
EXTT1=
EXTT2=
PLAYORDER=
